<svg width="16" height="16" xmlns="http://www.w3.org/2000/svg" viewBox="0 0 1e3 1e3" enableBackground="new 0 0 1000 1000"><g><path d="M188.1 869.7c0 65 52.4 120.3 117 120.3H695c64.6.0 117-55.4 117-120.3l78-630.1H110.1l78 630.1zM622.8 361.8h76.5v506h-76.5V361.8zM453.7 361.8h92.5v506h-92.5V361.8zm-153 0h76.5v506h-76.5V361.8z"/><path d="M870.4 86.5H616.9c0 0-17.5-76.5-39-76.5H422c-21.5.0-39 76.5-39 76.5H129.6c-32.3.0-58.5 28.2-58.5 60.7.0 32.5.0 61.5.0 61.5h857.8c0 0 0-29 0-61.5C928.9 114.8 902.7 86.5 870.4 86.5z"/></g></svg>