<svg width="16" height="16" xmlns="http://www.w3.org/2000/svg" viewBox="0 0 1e3 1e3" enableBackground="new 0 0 1000 1000"><g><path d="M928.8 10c17.6.0 32.2 5.8 43.8 17.5C984.2 39.1 990 53.7 990 71.3c0 17.2-5.9 31.7-17.7 43.5L586.6 5e2l385.7 385.2c11.8 11.8 17.7 26.3 17.7 43.5.0 17.6-5.8 32.2-17.5 43.8-11.6 11.6-26.2 17.5-43.8 17.5-17.2.0-31.7-5.9-43.5-17.7L5e2 586.6 114.8 972.3C103 984.1 88.5 990 71.3 990c-17.6.0-32.2-5.8-43.8-17.5C15.8 960.9 10 946.3 10 928.8c0-17.2 5.9-31.7 17.7-43.5L413.4 5e2 27.7 114.8C15.9 103 10 88.5 10 71.3c0-17.6 5.8-32.2 17.5-43.8C39.1 15.8 53.7 10 71.3 10c17.2.0 31.7 5.9 43.5 17.7L5e2 413.4 885.2 27.7C897 15.9 911.5 10 928.8 10z"/></g></svg>
